<svg width="1260" height="424" viewBox="0 0 1260 424" fill="none" xmlns="http://www.w3.org/2000/svg">
<mask id="mask0_395_13784" style="mask-type:alpha" maskUnits="userSpaceOnUse" x="0" y="0" width="1260" height="424">
<mask id="mask1_395_13784" style="mask-type:alpha" maskUnits="userSpaceOnUse" x="0" y="0" width="1260" height="424">
<rect width="1260" height="424" fill="#C4C4C4"/>
</mask>
<g mask="url(#mask1_395_13784)">
<path d="M1644.18 -102.812C1443.23 -77.051 1128.18 -24.9172 1288.46 139.656C1492.42 349.087 1990.85 294.222 1769.48 455.868" stroke="white" stroke-width="3"/>
<path d="M1579.39 -76.5424C1378.44 -50.7813 1063.38 1.35249 1223.66 165.926C1427.63 375.357 1926.06 320.492 1704.69 482.137" stroke="white" stroke-width="3"/>
<path d="M1511.71 -56.1642C1310.76 -30.4032 995.704 21.7307 1155.98 186.304C1359.95 395.735 1858.38 340.87 1637.01 502.515" stroke="white" stroke-width="3"/>
<path d="M1441.74 -42.396C1240.79 -16.635 925.742 35.4989 1086.02 200.072C1289.99 409.503 1788.42 354.638 1567.05 516.284" stroke="white" stroke-width="3"/>
<path d="M1370.41 -35.3027C1169.46 -9.54172 854.406 42.5921 1014.69 207.165C1218.65 416.597 1717.08 361.731 1495.71 523.377" stroke="white" stroke-width="3"/>
<path d="M1298.6 -34.1797C1097.65 -8.41868 782.594 43.7152 942.873 208.288C1146.84 417.72 1645.27 362.855 1423.9 524.5" stroke="white" stroke-width="3"/>
<path d="M1226.9 -37.7864C1025.95 -12.0254 710.896 40.1085 871.175 204.682C1075.14 414.113 1573.57 359.248 1352.2 520.893" stroke="white" stroke-width="3"/>
<path d="M1155.54 -44.7256C954.592 -18.9646 639.539 33.1693 799.819 197.743C1003.79 407.174 1502.22 352.309 1280.85 513.954" stroke="white" stroke-width="3"/>
<path d="M1084.51 -53.7145C883.555 -27.9535 568.502 24.1804 728.782 188.754C932.748 398.185 1431.18 343.32 1209.81 504.965" stroke="white" stroke-width="3"/>
<path d="M1013.65 -63.6948C812.703 -37.9338 497.65 14.2 657.929 178.773C861.896 388.204 1360.33 333.339 1138.96 494.985" stroke="white" stroke-width="3"/>
<path d="M942.834 -73.8428C741.883 -48.0818 426.83 4.05208 587.11 168.625C791.077 378.056 1289.51 323.191 1068.14 484.837" stroke="white" stroke-width="3"/>
<path d="M871.926 -83.5371C670.975 -57.7761 355.922 -5.64226 516.202 158.931C720.169 368.362 1218.6 313.497 997.23 475.143" stroke="white" stroke-width="3"/>
<path d="M800.853 -92.3228C599.903 -66.5617 284.85 -14.4279 445.129 150.145C649.096 359.576 1147.53 304.711 926.157 466.357" stroke="white" stroke-width="3"/>
<path d="M729.584 -99.8759C528.633 -74.1148 213.58 -21.981 373.86 142.592C577.827 352.023 1076.26 297.158 854.888 458.804" stroke="white" stroke-width="3"/>
<path d="M658.121 -105.976C457.17 -80.2153 142.117 -28.0815 302.397 136.492C506.364 345.923 1004.79 291.058 783.425 452.703" stroke="white" stroke-width="3"/>
<path d="M586.051 -110.542C385.101 -84.7809 70.0481 -32.647 230.327 131.926C434.294 341.357 932.725 286.492 711.355 448.138" stroke="white" stroke-width="3"/>
<path d="M514.346 -114.056C313.396 -88.2951 -1.65684 -36.1613 158.623 128.412C362.589 337.843 861.02 282.978 639.65 444.623" stroke="white" stroke-width="3"/>
<path d="M442.589 -116.692C241.639 -90.9312 -73.414 -38.7974 86.8654 125.776C290.832 335.207 789.263 280.342 567.893 441.987" stroke="white" stroke-width="3"/>
<path d="M370.791 -118.33C169.84 -92.5689 -145.213 -40.4351 15.0667 124.138C219.034 333.569 717.465 278.704 496.094 440.35" stroke="white" stroke-width="3"/>
<path d="M298.968 -118.818C98.018 -93.0575 -217.035 -40.9236 -56.7555 123.65C147.211 333.081 645.642 278.216 424.272 439.861" stroke="white" stroke-width="3"/>
<path d="M227.151 -117.965C26.2004 -92.2036 -288.853 -40.0697 -128.573 124.504C75.3937 333.935 573.825 279.07 352.455 440.715" stroke="white" stroke-width="3"/>
<path d="M155.384 -115.515C-45.5661 -89.7539 -360.619 -37.62 -200.34 126.953C3.62716 336.384 502.058 281.519 280.688 443.165" stroke="white" stroke-width="3"/>
<path d="M83.7461 -111.126C-117.204 -85.3651 -432.257 -33.2312 -271.978 131.342C-68.0108 340.773 430.42 285.908 209.05 447.554" stroke="white" stroke-width="3"/>
<path d="M12.3713 -104.318C-188.579 -78.5567 -503.632 -26.4229 -343.353 138.15C-139.386 347.582 359.045 292.716 137.675 454.362" stroke="white" stroke-width="3"/>
<path d="M-58.4962 -94.394C-259.446 -68.633 -574.499 -16.4992 -414.22 148.074C-210.253 357.505 288.178 302.64 66.8077 464.286" stroke="white" stroke-width="3"/>
<path d="M-128.367 -80.3641C-329.318 -54.6031 -644.371 -2.46928 -484.091 162.104C-280.124 371.535 218.307 316.67 -3.06353 478.315" stroke="white" stroke-width="3"/>
</g>
</mask>
<g mask="url(#mask0_395_13784)">
<rect width="1260" height="424" rx="40" fill="white"/>
</g>
</svg>
