<svg width="18" height="18" viewBox="0 0 18 18" fill="none" xmlns="http://www.w3.org/2000/svg">
<path d="M9 15.5625C8.68934 15.5625 8.4375 15.3107 8.4375 15C8.4375 14.6893 8.68934 14.4375 9 14.4375C12.003 14.4375 14.4375 12.003 14.4375 9C14.4375 5.99695 12.003 3.5625 9 3.5625C8.68934 3.5625 8.4375 3.31066 8.4375 3C8.4375 2.68934 8.68934 2.4375 9 2.4375C12.6244 2.4375 15.5625 5.37563 15.5625 9C15.5625 12.6244 12.6244 15.5625 9 15.5625Z" fill="#06D9C8"/>
<path d="M5.64775 10.8523C5.86742 11.0719 5.86742 11.4281 5.64775 11.6477C5.42808 11.8674 5.07192 11.8674 4.85225 11.6477L2.60225 9.39775C2.38258 9.17808 2.38258 8.82192 2.60225 8.60225L4.85225 6.35225C5.07192 6.13258 5.42808 6.13258 5.64775 6.35225C5.86742 6.57192 5.86742 6.92808 5.64775 7.14775L4.35799 8.4375L10.5 8.4375C10.8107 8.4375 11.0625 8.68934 11.0625 9C11.0625 9.31066 10.8107 9.5625 10.5 9.5625L4.35799 9.5625L5.64775 10.8523Z" fill="#06D9C8"/>
</svg>
