<svg width="217" height="168" viewBox="0 0 217 168" fill="none" xmlns="http://www.w3.org/2000/svg">
<g filter="url(#filter0_f_176_1879)">
<ellipse cx="106.724" cy="131.184" rx="77.4327" ry="14.9378" fill="#616161" fill-opacity="0.35"/>
</g>
<path d="M107.575 161C151.923 161 187.874 125.049 187.874 80.7008C187.874 36.3529 151.923 0.401855 107.575 0.401855C63.227 0.401855 27.2759 36.3529 27.2759 80.7008C27.2759 125.049 63.227 161 107.575 161Z" fill="url(#paint0_linear_176_1879)"/>
<g filter="url(#filter1_d_176_1879)">
<path d="M174.839 54.744L106.028 102.765L37.2173 54.744L100.208 10.7664C101.916 9.57582 103.949 8.9375 106.031 8.9375C108.113 8.9375 110.145 9.57582 111.854 10.7664L124.419 19.5505L127.708 21.8351L160.834 44.9661L164.324 47.4163L174.839 54.744Z" fill="url(#paint1_linear_176_1879)"/>
</g>
<path d="M94.8393 94.9579L37.2173 135.931V54.7441L94.8393 94.9579Z" fill="url(#paint2_linear_176_1879)"/>
<g filter="url(#filter2_f_176_1879)">
<ellipse cx="139.648" cy="53.1417" rx="25.6077" ry="8.23104" fill="#A4A4A4" fill-opacity="0.3"/>
</g>
<path d="M117.222 94.9579L174.844 135.931V54.7441L117.222 94.9579Z" fill="url(#paint3_linear_176_1879)"/>
<path d="M37.2173 135.931L100.134 91.2C101.856 89.9739 103.917 89.3149 106.031 89.3149C108.145 89.3149 110.206 89.9739 111.928 91.2L174.839 135.931H37.2173Z" fill="url(#paint4_linear_176_1879)"/>
<path d="M140.832 48.3027C142.753 48.3027 144.095 46.9917 144.095 45.1623C144.095 43.3329 142.753 42.0219 140.832 42.0219C138.942 42.0219 137.57 43.3329 137.57 45.1623C137.57 46.9917 138.942 48.3027 140.832 48.3027ZM143.455 40.8938C143.455 38.7595 144.491 37.9363 146.077 37.1131C148.211 36.0154 149.796 34.2166 149.796 31.6554C149.796 27.8443 146.168 25.1612 141.32 25.1612C136.198 25.1612 132.539 28.1796 132.173 32.4177L138.058 33.4848C138.271 31.5335 139.43 30.1005 141.076 30.1005C142.387 30.1005 143.394 31.0152 143.394 32.2652C143.394 33.5153 142.265 34.2166 141.29 34.8568C139.156 36.2594 138.241 37.8448 138.241 40.8938H143.455Z" fill="white"/>
<g filter="url(#filter3_d_176_1879)">
<path d="M44.4882 40.0327C33.9391 44.9673 22.6032 48.005 11.0002 49.0064C12.568 52.6509 23.7078 70.894 56.7763 85.9257C57.6703 86.0633 78.3201 76.4569 89.6523 69.8694C89.2673 70.4195 54.4521 57.6088 44.4882 40.0327Z" fill="url(#paint5_linear_176_1879)"/>
</g>
<path d="M147.5 45C156.06 45 163 38.0604 163 29.5C163 20.9396 156.06 14 147.5 14C138.94 14 132 20.9396 132 29.5C132 38.0604 138.94 45 147.5 45Z" fill="#B4B4B4"/>
<path d="M45.3043 49.1029C44.8188 48.7661 44.204 48.6752 43.6418 48.8571L25.1851 54.8284C24.524 55.0423 24.2884 55.8566 24.7333 56.3905C25.0915 56.8204 25.6779 56.9846 26.2073 56.8032L45.1349 50.3202C45.669 50.1373 45.7681 49.4247 45.3043 49.1029Z" fill="#D8D8D8"/>
<path d="M44.9845 56.4574C44.5163 56.0178 43.8444 55.8713 43.2358 56.0761L30.4585 60.3763C29.8951 60.5659 29.6961 61.2611 30.074 61.72C30.3826 62.095 30.8913 62.2396 31.351 62.083L44.7549 57.5192C45.2075 57.3651 45.3329 56.7846 44.9845 56.4574Z" fill="#D8D8D8"/>
<path d="M51.8425 60.099C51.354 59.7078 50.6969 59.5995 50.1087 59.8133L35.3909 65.1625C34.8132 65.3725 34.6394 66.1052 35.0612 66.5523C35.3838 66.8943 35.8793 67.0111 36.3208 66.8491L51.6595 61.2203C52.1363 61.0453 52.2389 60.4165 51.8425 60.099Z" fill="#D8D8D8"/>
<path d="M56.9877 71.14C56.5352 70.6399 55.8222 70.4689 55.1921 70.7093L46.7808 73.9191C46.2643 74.1162 46.0781 74.7515 46.4065 75.1962C46.7142 75.613 47.2628 75.7723 47.7459 75.5852L56.7615 72.0934C57.1503 71.9428 57.2674 71.4492 56.9877 71.14Z" fill="#D8D8D8"/>
<g filter="url(#filter4_d_176_1879)">
<path d="M166.43 65.4741C179.221 71.4576 192.967 75.141 207.036 76.3553C205.135 80.7744 191.627 102.895 151.53 121.122C150.446 121.289 125.407 109.641 111.666 101.653C112.132 102.32 154.348 86.7861 166.43 65.4741Z" fill="url(#paint6_linear_176_1879)"/>
</g>
<path d="M165.44 76.4725C166.029 76.0641 166.774 75.9538 167.456 76.1744L189.836 83.4149C190.638 83.6743 190.923 84.6618 190.384 85.3091C189.949 85.8303 189.238 86.0294 188.596 85.8096L165.646 77.9485C164.998 77.7267 164.878 76.8627 165.44 76.4725Z" fill="#D8D8D8"/>
<path d="M159.174 82.4327C159.742 81.8997 160.556 81.7221 161.294 81.9705L176.788 87.1847C177.471 87.4146 177.712 88.2575 177.254 88.814C176.88 89.2687 176.263 89.444 175.705 89.2542L159.452 83.7202C158.904 83.5334 158.751 82.8295 159.174 82.4327Z" fill="#D8D8D8"/>
<path d="M152.735 87.3804C153.327 86.9061 154.124 86.7748 154.837 87.034L172.683 93.5202C173.384 93.7748 173.594 94.6633 173.083 95.2054C172.692 95.6201 172.091 95.7617 171.556 95.5653L152.957 88.7401C152.378 88.5279 152.254 87.7654 152.735 87.3804Z" fill="#D8D8D8"/>
<path d="M138.245 97.2793C138.793 96.6729 139.658 96.4655 140.422 96.757L150.621 100.649C151.248 100.888 151.473 101.658 151.075 102.198C150.702 102.703 150.037 102.896 149.451 102.669L138.519 98.4353C138.048 98.2527 137.906 97.6542 138.245 97.2793Z" fill="#D8D8D8"/>
<path d="M144.902 91.9931C145.506 91.6144 146.251 91.536 146.92 91.7807L170.42 100.373C171.171 100.648 171.353 101.627 170.751 102.153C170.353 102.501 169.796 102.604 169.3 102.421L145.058 93.4908C144.404 93.25 144.312 92.3633 144.902 91.9931Z" fill="#D8D8D8"/>
<path d="M62.078 62.5125C61.5801 62.2002 60.9658 62.1355 60.4138 62.3374L41.0332 69.4235C40.4138 69.65 40.2637 70.4576 40.7605 70.8914C41.089 71.1784 41.548 71.2631 41.9573 71.1123L61.9495 63.7477C62.4886 63.5491 62.5647 62.8178 62.078 62.5125Z" fill="#D8D8D8"/>
<path d="M173.705 19.3026C173.705 20.9382 172.379 22.2642 170.743 22.2642C169.107 22.2642 167.781 20.9382 167.781 19.3026C167.781 17.667 169.107 16.341 170.743 16.341C172.379 16.341 173.705 17.667 173.705 19.3026Z" stroke="url(#paint7_linear_176_1879)" stroke-width="2.61276"/>
<circle cx="51.8505" cy="143.683" r="2.96157" stroke="url(#paint8_linear_176_1879)" stroke-width="2.61276"/>
<circle cx="154.891" cy="150.39" r="2.96157" stroke="url(#paint9_linear_176_1879)" stroke-width="2.61276"/>
<path d="M62.6221 25.2809C63.137 23.1479 66.1709 23.1479 66.6858 25.2809L67.1997 27.4096C67.3837 28.1719 67.9788 28.767 68.741 28.951L70.8698 29.4649C73.0028 29.9798 73.0028 33.0137 70.8698 33.5286L68.741 34.0424C67.9788 34.2264 67.3837 34.8216 67.1997 35.5838L66.6858 37.7126C66.1709 39.8455 63.137 39.8455 62.6221 37.7126L62.1082 35.5838C61.9242 34.8216 61.3291 34.2264 60.5669 34.0424L58.4381 33.5286C56.3051 33.0137 56.3051 29.9798 58.4381 29.4649L60.5669 28.951C61.3291 28.767 61.9242 28.1719 62.1082 27.4096L62.6221 25.2809Z" fill="url(#paint10_linear_176_1879)"/>
<path d="M184.792 131.332C185.307 129.199 188.341 129.199 188.856 131.332L189.37 133.46C189.554 134.223 190.149 134.818 190.911 135.002L193.04 135.516C195.173 136.031 195.173 139.064 193.04 139.579L190.911 140.093C190.149 140.277 189.554 140.872 189.37 141.635L188.856 143.763C188.341 145.896 185.307 145.896 184.792 143.763L184.278 141.635C184.094 140.872 183.499 140.277 182.737 140.093L180.608 139.579C178.475 139.064 178.475 136.031 180.608 135.516L182.737 135.002C183.499 134.818 184.094 134.223 184.278 133.46L184.792 131.332Z" fill="url(#paint11_linear_176_1879)"/>
<path d="M28.6464 117.187C29.9704 116.975 31.0274 118.276 30.5491 119.528L28.9341 123.757C28.4558 125.009 26.8008 125.274 25.9551 124.234L23.1005 120.721C22.2549 119.68 22.8528 118.115 24.1768 117.903L28.6464 117.187Z" fill="url(#paint12_linear_176_1879)"/>
<path d="M188.046 57.5799C187.715 56.2806 188.914 55.1099 190.205 55.4727L194.563 56.6972C195.854 57.06 196.268 58.6841 195.308 59.6207L192.069 62.7823C191.109 63.7188 189.496 63.2654 189.165 61.9661L188.046 57.5799Z" fill="url(#paint13_linear_176_1879)"/>
<defs>
<filter id="filter0_f_176_1879" x="7.51851" y="94.4731" width="198.412" height="73.4215" filterUnits="userSpaceOnUse" color-interpolation-filters="sRGB">
<feFlood flood-opacity="0" result="BackgroundImageFix"/>
<feBlend mode="normal" in="SourceGraphic" in2="BackgroundImageFix" result="shape"/>
<feGaussianBlur stdDeviation="10.8865" result="effect1_foregroundBlur_176_1879"/>
</filter>
<filter id="filter1_d_176_1879" x="33.7336" y="8.9375" width="144.588" height="100.795" filterUnits="userSpaceOnUse" color-interpolation-filters="sRGB">
<feFlood flood-opacity="0" result="BackgroundImageFix"/>
<feColorMatrix in="SourceAlpha" type="matrix" values="0 0 0 0 0 0 0 0 0 0 0 0 0 0 0 0 0 0 127 0" result="hardAlpha"/>
<feOffset dy="3.48368"/>
<feGaussianBlur stdDeviation="1.74184"/>
<feComposite in2="hardAlpha" operator="out"/>
<feColorMatrix type="matrix" values="0 0 0 0 0 0 0 0 0 0 0 0 0 0 0 0 0 0 0.25 0"/>
<feBlend mode="normal" in2="BackgroundImageFix" result="effect1_dropShadow_176_1879"/>
<feBlend mode="normal" in="SourceGraphic" in2="effect1_dropShadow_176_1879" result="shape"/>
</filter>
<filter id="filter2_f_176_1879" x="92.2675" y="23.1376" width="94.7613" height="60.0079" filterUnits="userSpaceOnUse" color-interpolation-filters="sRGB">
<feFlood flood-opacity="0" result="BackgroundImageFix"/>
<feBlend mode="normal" in="SourceGraphic" in2="BackgroundImageFix" result="shape"/>
<feGaussianBlur stdDeviation="10.8865" result="effect1_foregroundBlur_176_1879"/>
</filter>
<filter id="filter3_d_176_1879" x="0.548963" y="33.0654" width="99.5544" height="66.7966" filterUnits="userSpaceOnUse" color-interpolation-filters="sRGB">
<feFlood flood-opacity="0" result="BackgroundImageFix"/>
<feColorMatrix in="SourceAlpha" type="matrix" values="0 0 0 0 0 0 0 0 0 0 0 0 0 0 0 0 0 0 127 0" result="hardAlpha"/>
<feOffset dy="3.48368"/>
<feGaussianBlur stdDeviation="5.22552"/>
<feComposite in2="hardAlpha" operator="out"/>
<feColorMatrix type="matrix" values="0 0 0 0 0.0196078 0 0 0 0 0.168627 0 0 0 0 0.396078 0 0 0 0.15 0"/>
<feBlend mode="normal" in2="BackgroundImageFix" result="effect1_dropShadow_176_1879"/>
<feBlend mode="normal" in="SourceGraphic" in2="effect1_dropShadow_176_1879" result="shape"/>
</filter>
<filter id="filter4_d_176_1879" x="91.5797" y="63.7323" width="124.982" height="85.2612" filterUnits="userSpaceOnUse" color-interpolation-filters="sRGB">
<feFlood flood-opacity="0" result="BackgroundImageFix"/>
<feColorMatrix in="SourceAlpha" type="matrix" values="0 0 0 0 0 0 0 0 0 0 0 0 0 0 0 0 0 0 127 0" result="hardAlpha"/>
<feOffset dx="-5.28021" dy="13.0638"/>
<feGaussianBlur stdDeviation="7.40282"/>
<feComposite in2="hardAlpha" operator="out"/>
<feColorMatrix type="matrix" values="0 0 0 0 0.021441 0 0 0 0 0.168056 0 0 0 0 0.395833 0 0 0 0.15 0"/>
<feBlend mode="normal" in2="BackgroundImageFix" result="effect1_dropShadow_176_1879"/>
<feBlend mode="normal" in="SourceGraphic" in2="effect1_dropShadow_176_1879" result="shape"/>
</filter>
<linearGradient id="paint0_linear_176_1879" x1="106.956" y1="-25.7455" x2="108.601" y2="256.252" gradientUnits="userSpaceOnUse">
<stop stop-color="white" stop-opacity="0"/>
<stop offset="1" stop-color="#B3B3B3"/>
</linearGradient>
<linearGradient id="paint1_linear_176_1879" x1="106.028" y1="8.9375" x2="106.028" y2="102.765" gradientUnits="userSpaceOnUse">
<stop stop-color="#DDDDDD"/>
<stop offset="1" stop-color="#BFBFBF"/>
</linearGradient>
<linearGradient id="paint2_linear_176_1879" x1="66.0283" y1="54.7441" x2="66.0283" y2="135.931" gradientUnits="userSpaceOnUse">
<stop stop-color="white"/>
<stop offset="1" stop-color="#E7E7E7"/>
</linearGradient>
<linearGradient id="paint3_linear_176_1879" x1="146.033" y1="54.7441" x2="146.033" y2="135.931" gradientUnits="userSpaceOnUse">
<stop stop-color="white"/>
<stop offset="1" stop-color="#E7E7E7"/>
</linearGradient>
<linearGradient id="paint4_linear_176_1879" x1="106.028" y1="89.3149" x2="106.028" y2="135.931" gradientUnits="userSpaceOnUse">
<stop stop-color="#ECECEC"/>
<stop offset="1" stop-color="#D5D5D5"/>
</linearGradient>
<linearGradient id="paint5_linear_176_1879" x1="19.5361" y1="60.4579" x2="71.0563" y2="50.3977" gradientUnits="userSpaceOnUse">
<stop stop-color="#F9F9F9"/>
<stop offset="1" stop-color="white"/>
</linearGradient>
<linearGradient id="paint6_linear_176_1879" x1="196.686" y1="90.2409" x2="134.214" y2="78.0423" gradientUnits="userSpaceOnUse">
<stop stop-color="#F9F9F9"/>
<stop offset="1" stop-color="white"/>
</linearGradient>
<linearGradient id="paint7_linear_176_1879" x1="165.497" y1="16.6351" x2="178.834" y2="28.1942" gradientUnits="userSpaceOnUse">
<stop stop-color="#D9D9D9"/>
<stop offset="1" stop-color="#BABABA"/>
</linearGradient>
<linearGradient id="paint8_linear_176_1879" x1="46.6044" y1="141.016" x2="59.9418" y2="152.575" gradientUnits="userSpaceOnUse">
<stop stop-color="#D9D9D9"/>
<stop offset="1" stop-color="#BABABA"/>
</linearGradient>
<linearGradient id="paint9_linear_176_1879" x1="149.645" y1="147.722" x2="162.982" y2="159.281" gradientUnits="userSpaceOnUse">
<stop stop-color="#D9D9D9"/>
<stop offset="1" stop-color="#BABABA"/>
</linearGradient>
<linearGradient id="paint10_linear_176_1879" x1="64.654" y1="16.8638" x2="64.654" y2="46.1297" gradientUnits="userSpaceOnUse">
<stop stop-color="#ECECEC"/>
<stop offset="1" stop-color="#D5D5D5"/>
</linearGradient>
<linearGradient id="paint11_linear_176_1879" x1="186.824" y1="122.915" x2="186.824" y2="152.18" gradientUnits="userSpaceOnUse">
<stop stop-color="#ECECEC"/>
<stop offset="1" stop-color="#D5D5D5"/>
</linearGradient>
<linearGradient id="paint12_linear_176_1879" x1="31.6254" y1="116.71" x2="22.162" y2="124.4" gradientUnits="userSpaceOnUse">
<stop stop-color="#ECECEC"/>
<stop offset="1" stop-color="#D5D5D5"/>
</linearGradient>
<linearGradient id="paint13_linear_176_1879" x1="187.301" y1="54.6565" x2="195.818" y2="63.3831" gradientUnits="userSpaceOnUse">
<stop stop-color="#ECECEC"/>
<stop offset="1" stop-color="#D5D5D5"/>
</linearGradient>
</defs>
</svg>
