<svg width="18" height="18" viewBox="0 0 18 18" fill="none" xmlns="http://www.w3.org/2000/svg">
<path d="M2.8458 9.02185C3.24868 7.00746 3.45012 6.00027 4.11572 5.35158C4.23874 5.23168 4.37183 5.12257 4.51352 5.02546C5.28016 4.5 6.30729 4.5 8.36157 4.5H9.63877C11.693 4.5 12.7202 4.5 13.4868 5.02546C13.6285 5.12257 13.7616 5.23168 13.8846 5.35158C14.5502 6.00027 14.7517 7.00746 15.1545 9.02185C15.7329 11.9139 16.0221 13.3599 15.3564 14.3845C15.2359 14.57 15.0952 14.7416 14.9369 14.8962C14.0627 15.75 12.5881 15.75 9.63877 15.75H8.36157C5.41229 15.75 3.93765 15.75 3.06347 14.8962C2.90519 14.7416 2.76449 14.57 2.64395 14.3845C1.9782 13.3599 2.2674 11.9139 2.8458 9.02185Z" stroke="#040349"/>
<path d="M6.75 4.5V3.75C6.75 2.50736 7.75736 1.5 9 1.5C10.2426 1.5 11.25 2.50736 11.25 3.75V4.5" stroke="#040349" stroke-linecap="round"/>
<path d="M6.87793 11.25C7.18681 12.1239 8.02024 12.75 8.9999 12.75C9.97956 12.75 10.813 12.1239 11.1219 11.25" stroke="#040349" stroke-linecap="round"/>
</svg>
