<svg width="28" height="28" viewBox="0 0 28 28" fill="none" xmlns="http://www.w3.org/2000/svg">
<path d="M14.0002 25.76C13.6502 25.76 13.3002 25.6784 13.0085 25.515C10.8268 24.325 6.9885 23.065 4.58516 22.75L4.24683 22.7034C2.7185 22.5167 1.4585 21.0817 1.4585 19.53V5.4367C1.4585 4.51503 1.82016 3.67503 2.48516 3.06836C3.15016 2.4617 4.0135 2.17003 4.9235 2.2517C7.49016 2.45003 11.3635 3.73336 13.5568 5.11003L13.8368 5.27336C13.9185 5.32003 14.0935 5.32003 14.1635 5.28503L14.3502 5.16836C16.5435 3.7917 20.4168 2.48503 22.9952 2.26336C23.0185 2.26336 23.1118 2.26336 23.1352 2.26336C23.9868 2.1817 24.8618 2.48503 25.5152 3.0917C26.1802 3.69836 26.5418 4.53836 26.5418 5.46003V19.5417C26.5418 21.105 25.2818 22.5284 23.7418 22.715L23.3568 22.7617C20.9535 23.0767 17.1035 24.3484 14.9685 25.5267C14.6885 25.69 14.3502 25.76 14.0002 25.76ZM4.6435 3.99003C4.27016 3.99003 3.93183 4.11836 3.6635 4.36336C3.37183 4.6317 3.2085 5.0167 3.2085 5.4367V19.53C3.2085 20.2184 3.8035 20.8834 4.4685 20.9767L4.8185 21.0234C7.4435 21.3734 11.4685 22.6917 13.8018 23.9634C13.9068 24.01 14.0585 24.0217 14.1168 23.9984C16.4502 22.7034 20.4985 21.3734 23.1352 21.0234L23.5318 20.9767C24.1968 20.895 24.7918 20.2184 24.7918 19.53V5.44836C24.7918 5.0167 24.6285 4.64336 24.3368 4.36336C24.0335 4.09503 23.6485 3.9667 23.2168 3.99003C23.1935 3.99003 23.1002 3.99003 23.0768 3.99003C20.8485 4.18836 17.2552 5.39003 15.2952 6.61503L15.1085 6.74336C14.4668 7.14003 13.5568 7.14003 12.9385 6.75503L12.6585 6.5917C10.6635 5.3667 7.07016 4.1767 4.7835 3.99003C4.73683 3.99003 4.69016 3.99003 4.6435 3.99003Z" fill="#06D9C8"/>
<path d="M14 24.78C13.5217 24.78 13.125 24.3834 13.125 23.905V6.40503C13.125 5.9267 13.5217 5.53003 14 5.53003C14.4783 5.53003 14.875 5.9267 14.875 6.40503V23.905C14.875 24.395 14.4783 24.78 14 24.78Z" fill="#06D9C8"/>
<path d="M9.0415 10.78H6.4165C5.93817 10.78 5.5415 10.3834 5.5415 9.90503C5.5415 9.4267 5.93817 9.03003 6.4165 9.03003H9.0415C9.51984 9.03003 9.9165 9.4267 9.9165 9.90503C9.9165 10.3834 9.51984 10.78 9.0415 10.78Z" fill="#06D9C8"/>
<path d="M9.9165 14.28H6.4165C5.93817 14.28 5.5415 13.8834 5.5415 13.405C5.5415 12.9267 5.93817 12.53 6.4165 12.53H9.9165C10.3948 12.53 10.7915 12.9267 10.7915 13.405C10.7915 13.8834 10.3948 14.28 9.9165 14.28Z" fill="#06D9C8"/>
</svg>
