<svg width="20" height="20" viewBox="0 0 20 20" fill="none" xmlns="http://www.w3.org/2000/svg">
<path d="M18.3324 9.16683C18.3248 6.57158 18.2428 5.19572 17.3569 4.30981C16.3805 3.3335 14.8092 3.3335 11.6665 3.3335H8.33317C5.19047 3.3335 3.61913 3.3335 2.64281 4.30981C1.6665 5.28612 1.6665 6.85747 1.6665 10.0002C1.6665 13.1429 1.6665 14.7142 2.64281 15.6905C3.61913 16.6668 5.19047 16.6668 8.33317 16.6668H9.58317" stroke="#06D9C8" stroke-linecap="round"/>
<path d="M12.9167 11.6665V16.6665M12.9167 16.6665L14.5833 14.9998M12.9167 16.6665L11.25 14.9998M16.6667 16.6665V11.6665M16.6667 11.6665L18.3333 13.3332M16.6667 11.6665L15 13.3332" stroke="#06D9C8" stroke-linecap="round" stroke-linejoin="round"/>
<path d="M8.33333 13.3335H5" stroke="#06D9C8" stroke-linecap="round"/>
<path d="M1.6665 8.3335L18.3332 8.3335" stroke="#06D9C8" stroke-linecap="round"/>
</svg>
