<svg width="28" height="28" viewBox="0 0 28 28" fill="none" xmlns="http://www.w3.org/2000/svg">
<path d="M6.46332 22.7733C5.75165 22.7733 5.08665 22.5283 4.60832 22.0733C4.00165 21.5017 3.70998 20.6383 3.81498 19.705L4.24665 15.925C4.32832 15.2133 4.75998 14.2683 5.26165 13.755L14.84 3.61667C17.2317 1.085 19.7283 1.015 22.26 3.40667C24.7917 5.79834 24.8617 8.295 22.47 10.8267L12.8917 20.965C12.4017 21.49 11.4917 21.98 10.78 22.0967L7.02332 22.7383C6.82498 22.75 6.64998 22.7733 6.46332 22.7733ZM18.585 3.395C17.6867 3.395 16.905 3.955 16.1117 4.795L6.53332 14.945C6.29998 15.19 6.03165 15.7733 5.98498 16.1117L5.55332 19.8917C5.50665 20.2767 5.59998 20.5917 5.80998 20.79C6.01998 20.9883 6.33498 21.0583 6.71998 21L10.4767 20.3583C10.815 20.3 11.375 19.9967 11.6083 19.7517L21.1867 9.61334C22.6333 8.07333 23.1583 6.65 21.0467 4.66667C20.1133 3.76833 19.3083 3.395 18.585 3.395Z" fill="#06D9C8"/>
<path d="M20.2302 12.775C20.2068 12.775 20.1718 12.775 20.1485 12.775C16.5085 12.4133 13.5802 9.64833 13.0202 6.03166C12.9502 5.55333 13.2768 5.11 13.7552 5.02833C14.2335 4.95833 14.6768 5.285 14.7585 5.76333C15.2018 8.58666 17.4885 10.7567 20.3352 11.0367C20.8135 11.0833 21.1635 11.515 21.1168 11.9933C21.0585 12.4367 20.6735 12.775 20.2302 12.775Z" fill="#06D9C8"/>
<path d="M24.5 26.5417H3.5C3.02167 26.5417 2.625 26.145 2.625 25.6667C2.625 25.1883 3.02167 24.7917 3.5 24.7917H24.5C24.9783 24.7917 25.375 25.1883 25.375 25.6667C25.375 26.145 24.9783 26.5417 24.5 26.5417Z" fill="#06D9C8"/>
</svg>
