<svg width="8" height="8" viewBox="0 0 8 8" fill="none" xmlns="http://www.w3.org/2000/svg">
<mask id="mask0_112_70005" style="mask-type:alpha" maskUnits="userSpaceOnUse" x="0" y="0" width="8" height="8">
<rect width="8" height="8" rx="2" fill="#D9D9D9"/>
</mask>
<g mask="url(#mask0_112_70005)">
<path d="M10 0H-2V8H10V0Z" fill="#012169"/>
<path d="M8.59375 0L4.01875 3.01667L-0.5375 0H-2V1.03333L2.5 4.01667L-2 6.98333V8H-0.5L4 5.01667L8.48125 8H10V7L5.51875 4.03333L10 1.06667V0H8.59375Z" fill="white"/>
<path d="M2.05 4.68333L-2 7.33333V8L3.08125 4.68333H2.05ZM5.5 5.01667L5.3875 5.6L8.9875 8H10L5.5 5.01667ZM-2 0V0.05L2.66875 3.18333L2.63125 2.45L-1.0625 0H-2ZM10 0L5.51875 2.93333H6.64375L10 0.7V0Z" fill="#C8102E"/>
<path d="M5.48125 0V8H2.48125V0H5.48125ZM10 2.66667V5.33333H-2V2.66667H10Z" fill="white"/>
<path d="M10 3.21667V4.81667H-2V3.21667H10ZM4.88125 0V8H3.08125V0H4.88125Z" fill="#C8102E"/>
</g>
</svg>
