<svg width="20" height="20" viewBox="0 0 20 20" fill="none" xmlns="http://www.w3.org/2000/svg">
<path d="M16.1835 9.7915H13.3335C12.9918 9.7915 12.7085 9.50817 12.7085 9.1665V3.3415C12.7085 2.72484 12.9502 2.14984 13.3835 1.71651C13.8168 1.28317 14.3918 1.0415 15.0085 1.0415H15.0168C16.0585 1.04984 17.0418 1.45817 17.7918 2.19984C18.5418 2.95817 18.9502 3.95817 18.9502 4.99984V7.0165C18.9585 8.67484 17.8418 9.7915 16.1835 9.7915ZM13.9585 8.5415H16.1835C17.1502 8.5415 17.7085 7.98317 17.7085 7.0165V4.99984C17.7085 4.28317 17.4252 3.59984 16.9168 3.08317C16.4085 2.58317 15.7252 2.29984 15.0168 2.2915C15.0168 2.2915 15.0168 2.2915 15.0085 2.2915C14.7335 2.2915 14.4668 2.39984 14.2668 2.59984C14.0668 2.79984 13.9585 3.05817 13.9585 3.3415V8.5415Z" fill="#06D9C8"/>
<path d="M7.49984 19.4415C7.10817 19.4415 6.7415 19.2915 6.4665 19.0082L5.08317 17.6165C5.00817 17.5415 4.8915 17.5332 4.80817 17.5998L3.37484 18.6665C2.93317 18.9998 2.34984 19.0582 1.84984 18.8082C1.34984 18.5582 1.0415 18.0582 1.0415 17.4998V4.99984C1.0415 2.48317 2.48317 1.0415 4.99984 1.0415H14.9998C15.3415 1.0415 15.6248 1.32484 15.6248 1.6665C15.6248 2.00817 15.3415 2.2915 14.9998 2.2915C14.4248 2.2915 13.9582 2.75817 13.9582 3.33317V17.4998C13.9582 18.0582 13.6498 18.5582 13.1498 18.8082C12.6498 19.0582 12.0665 19.0082 11.6248 18.6748L10.1998 17.6082C10.1165 17.5415 9.99984 17.5582 9.93317 17.6248L8.53317 19.0248C8.25817 19.2915 7.8915 19.4415 7.49984 19.4415ZM4.92484 16.3082C5.30817 16.3082 5.68317 16.4498 5.9665 16.7415L7.34984 18.1332C7.39984 18.1832 7.4665 18.1915 7.49984 18.1915C7.53317 18.1915 7.59984 18.1832 7.64984 18.1332L9.04984 16.7332C9.5665 16.2165 10.3832 16.1665 10.9582 16.6082L12.3748 17.6665C12.4665 17.7332 12.5498 17.7082 12.5915 17.6832C12.6332 17.6582 12.7082 17.6082 12.7082 17.4998V3.33317C12.7082 2.95817 12.7998 2.59984 12.9582 2.2915H4.99984C3.14984 2.2915 2.2915 3.14984 2.2915 4.99984V17.4998C2.2915 17.6165 2.3665 17.6665 2.40817 17.6915C2.45817 17.7165 2.5415 17.7332 2.62484 17.6665L4.04984 16.5998C4.30817 16.4082 4.6165 16.3082 4.92484 16.3082Z" fill="#06D9C8"/>
<path d="M10 11.4668H7.5C7.15833 11.4668 6.875 11.1835 6.875 10.8418C6.875 10.5001 7.15833 10.2168 7.5 10.2168H10C10.3417 10.2168 10.625 10.5001 10.625 10.8418C10.625 11.1835 10.3417 11.4668 10 11.4668Z" fill="#06D9C8"/>
<path d="M10 8.1333H7.5C7.15833 8.1333 6.875 7.84997 6.875 7.5083C6.875 7.16663 7.15833 6.8833 7.5 6.8833H10C10.3417 6.8833 10.625 7.16663 10.625 7.5083C10.625 7.84997 10.3417 8.1333 10 8.1333Z" fill="#06D9C8"/>
<path d="M4.97493 8.34147C4.5166 8.34147 4.1416 7.96647 4.1416 7.50814C4.1416 7.0498 4.5166 6.6748 4.97493 6.6748C5.43327 6.6748 5.80827 7.0498 5.80827 7.50814C5.80827 7.96647 5.43327 8.34147 4.97493 8.34147Z" fill="#06D9C8"/>
<path d="M4.97493 11.675C4.5166 11.675 4.1416 11.3 4.1416 10.8416C4.1416 10.3833 4.5166 10.0083 4.97493 10.0083C5.43327 10.0083 5.80827 10.3833 5.80827 10.8416C5.80827 11.3 5.43327 11.675 4.97493 11.675Z" fill="#06D9C8"/>
</svg>
