<svg width="24" height="24" viewBox="0 0 24 24" fill="none" xmlns="http://www.w3.org/2000/svg">
<path fill-rule="evenodd" clip-rule="evenodd" d="M23 7C23 7.41421 22.6642 7.75 22.25 7.75L2.25 7.75C1.83579 7.75 1.5 7.41421 1.5 7C1.5 6.58579 1.83579 6.25 2.25 6.25L22.25 6.25C22.6642 6.25 23 6.58579 23 7Z" fill="#040349"/>
<path fill-rule="evenodd" clip-rule="evenodd" d="M23 12C23 12.4142 22.6642 12.75 22.25 12.75L8.25 12.75C7.83579 12.75 7.5 12.4142 7.5 12C7.5 11.5858 7.83579 11.25 8.25 11.25L22.25 11.25C22.6642 11.25 23 11.5858 23 12Z" fill="#040349"/>
<path fill-rule="evenodd" clip-rule="evenodd" d="M23 17C23 17.4142 22.6642 17.75 22.25 17.75H14.25C13.8358 17.75 13.5 17.4142 13.5 17C13.5 16.5858 13.8358 16.25 14.25 16.25H22.25C22.6642 16.25 23 16.5858 23 17Z" fill="#040349"/>
</svg>
