<svg width="104" height="104" viewBox="0 0 104 104" fill="none" xmlns="http://www.w3.org/2000/svg">
<g filter="url(#filter0_d_112_45361)">
<circle cx="48" cy="49" r="45" fill="url(#paint0_linear_112_45361)"/>
<circle cx="48" cy="49" r="43.5" stroke="white" stroke-width="3"/>
</g>
<path d="M46.0845 54.0192C45.7679 54.0192 45.467 53.8925 45.2454 53.6708L41.4137 49.8392C40.9545 49.38 40.9545 48.62 41.4137 48.1608C41.8729 47.7017 42.6329 47.7017 43.092 48.1608L46.0845 51.1533L52.8929 44.345C53.352 43.8858 54.112 43.8858 54.5712 44.345C55.0304 44.8042 55.0304 45.5642 54.5712 46.0233L46.9237 53.6708C46.702 53.8925 46.4012 54.0192 46.0845 54.0192Z" fill="white"/>
<path d="M48.0002 66.0208C47.0027 66.0208 46.0052 65.6883 45.2294 65.0233L42.7277 62.87C42.4744 62.6483 41.8411 62.4266 41.5086 62.4266H38.7852C36.4419 62.4266 34.5419 60.5266 34.5419 58.1833V55.4758C34.5419 55.1433 34.3202 54.5258 34.0986 54.2725L31.9611 51.755C30.6627 50.2191 30.6627 47.7966 31.9611 46.2608L34.0986 43.7433C34.3202 43.49 34.5419 42.8725 34.5419 42.54V39.8166C34.5419 37.4733 36.4419 35.5733 38.7852 35.5733H41.5244C41.8569 35.5733 42.4902 35.3358 42.7436 35.13L45.2452 32.9766C46.7969 31.6466 49.2194 31.6466 50.7711 32.9766L53.2727 35.13C53.5261 35.3516 54.1594 35.5733 54.4919 35.5733H57.1836C59.5269 35.5733 61.4269 37.4733 61.4269 39.8166V42.5083C61.4269 42.8408 61.6644 43.4741 61.8861 43.7275L64.0394 46.2291C65.3694 47.7808 65.3694 50.2033 64.0394 51.755L61.8861 54.2566C61.6644 54.51 61.4269 55.1433 61.4269 55.4758V58.1675C61.4269 60.5108 59.5269 62.4108 57.1836 62.4108H54.4919C54.1594 62.4108 53.5261 62.6483 53.2727 62.8541L50.7711 65.0075C49.9952 65.6883 48.9977 66.0208 48.0002 66.0208ZM38.7852 37.9483C37.7561 37.9483 36.9169 38.7875 36.9169 39.8166V42.5241C36.9169 43.4266 36.4894 44.5825 35.9036 45.2633L33.7661 47.7808C33.2119 48.43 33.2119 49.5541 33.7661 50.2033L35.9036 52.7208C36.4894 53.4175 36.9169 54.5575 36.9169 55.46V58.1675C36.9169 59.1966 37.7561 60.0358 38.7852 60.0358H41.5244C42.4427 60.0358 43.5986 60.4633 44.2952 61.065L46.7969 63.2183C47.4461 63.7725 48.5861 63.7725 49.2352 63.2183L51.7369 61.065C52.4336 60.4791 53.5894 60.0358 54.5077 60.0358H57.1994C58.2286 60.0358 59.0677 59.1966 59.0677 58.1675V55.4758C59.0677 54.5575 59.4952 53.4016 60.0969 52.705L62.2502 50.2033C62.8044 49.5541 62.8044 48.4141 62.2502 47.765L60.0969 45.2633C59.4952 44.5666 59.0677 43.4108 59.0677 42.4925V39.8166C59.0677 38.7875 58.2286 37.9483 57.1994 37.9483H54.5077C53.5894 37.9483 52.4336 37.5208 51.7369 36.9191L49.2352 34.7658C48.5861 34.2116 47.4461 34.2116 46.7969 34.7658L44.2952 36.935C43.5986 37.5208 42.4269 37.9483 41.5244 37.9483H38.7852Z" fill="white"/>
<defs>
<filter id="filter0_d_112_45361" x="0" y="0" width="104" height="104" filterUnits="userSpaceOnUse" color-interpolation-filters="sRGB">
<feFlood flood-opacity="0" result="BackgroundImageFix"/>
<feColorMatrix in="SourceAlpha" type="matrix" values="0 0 0 0 0 0 0 0 0 0 0 0 0 0 0 0 0 0 127 0" result="hardAlpha"/>
<feOffset dx="4" dy="3"/>
<feGaussianBlur stdDeviation="3.5"/>
<feComposite in2="hardAlpha" operator="out"/>
<feColorMatrix type="matrix" values="0 0 0 0 0 0 0 0 0 0 0 0 0 0 0 0 0 0 0.09 0"/>
<feBlend mode="normal" in2="BackgroundImageFix" result="effect1_dropShadow_112_45361"/>
<feBlend mode="normal" in="SourceGraphic" in2="effect1_dropShadow_112_45361" result="shape"/>
</filter>
<linearGradient id="paint0_linear_112_45361" x1="17.7857" y1="26.5" x2="96.2143" y2="76" gradientUnits="userSpaceOnUse">
<stop stop-color="#040349"/>
<stop offset="1" stop-color="#06D9C8"/>
</linearGradient>
</defs>
</svg>
