<svg width="18" height="18" viewBox="0 0 18 18" fill="none" xmlns="http://www.w3.org/2000/svg">
<g clip-path="url(#clip0_147_1103)">
<path d="M4.64254 5.85758C4.46254 5.85758 4.29754 5.77509 4.18504 5.62509C4.05754 5.45259 4.04254 5.22756 4.14004 5.04006C4.26754 4.78506 4.44753 4.53759 4.68003 4.31259L7.11753 1.86758C8.36253 0.630078 10.3875 0.630078 11.6325 1.86758L12.945 3.2026C13.5 3.7501 13.8375 4.4851 13.875 5.2651C13.8825 5.4376 13.815 5.60258 13.6875 5.71508C13.56 5.82758 13.3875 5.88008 13.2225 5.85008C13.0725 5.82758 12.915 5.82009 12.75 5.82009H5.25004C5.07004 5.82009 4.89754 5.83508 4.72504 5.85758C4.70254 5.85758 4.67254 5.85758 4.64254 5.85758ZM5.89504 4.68759H12.615C12.5175 4.43259 12.36 4.20009 12.15 3.99009L10.83 2.65507C10.0275 1.86007 8.71503 1.86007 7.90503 2.65507L5.89504 4.68759Z" fill="#06D9C8"/>
<path d="M3.75 17.8125C2.505 17.8125 1.335 17.1525 0.705 16.08C0.3675 15.54 0.1875 14.9025 0.1875 14.25C0.1875 12.285 1.785 10.6875 3.75 10.6875C5.715 10.6875 7.3125 12.285 7.3125 14.25C7.3125 14.9025 7.1325 15.54 6.795 16.0875C6.165 17.1525 4.995 17.8125 3.75 17.8125ZM3.75 11.8125C2.4075 11.8125 1.3125 12.9075 1.3125 14.25C1.3125 14.6925 1.4325 15.1275 1.665 15.5025C2.1075 16.2525 2.8875 16.6875 3.75 16.6875C4.6125 16.6875 5.3925 16.245 5.835 15.51C6.0675 15.1275 6.1875 14.7 6.1875 14.25C6.1875 12.9075 5.0925 11.8125 3.75 11.8125Z" fill="#06D9C8"/>
<path d="M4.86732 14.7974H2.63232C2.32482 14.7974 2.06982 14.5424 2.06982 14.2349C2.06982 13.9274 2.32482 13.6724 2.63232 13.6724H4.87482C5.18232 13.6724 5.43732 13.9274 5.43732 14.2349C5.43732 14.5424 5.18232 14.7974 4.86732 14.7974Z" fill="#06D9C8"/>
<path d="M3.75 15.9451C3.4425 15.9451 3.1875 15.6901 3.1875 15.3826V13.1401C3.1875 12.8326 3.4425 12.5776 3.75 12.5776C4.0575 12.5776 4.3125 12.8326 4.3125 13.1401V15.3826C4.3125 15.6976 4.0575 15.9451 3.75 15.9451Z" fill="#06D9C8"/>
<path d="M12.7499 17.0625H5.72236C5.48236 17.0625 5.27236 16.9125 5.18986 16.695C5.10736 16.47 5.17486 16.2225 5.35486 16.0725C5.53486 15.9225 5.69986 15.7275 5.81986 15.5175C6.05986 15.135 6.17986 14.7 6.17986 14.2575C6.17986 12.915 5.08486 11.82 3.74236 11.82C3.04486 11.82 2.37736 12.12 1.91236 12.6525C1.75486 12.825 1.50736 12.8925 1.28986 12.81C1.07236 12.7275 0.922363 12.5175 0.922363 12.285V9C0.922363 6.69 2.34736 5.01751 4.55986 4.74001C4.76236 4.71001 4.99486 4.6875 5.23486 4.6875H12.7349C12.9149 4.6875 13.1474 4.695 13.3874 4.7325C15.5999 4.9875 17.0474 6.6675 17.0474 9V12.75C17.0624 15.33 15.3299 17.0625 12.7499 17.0625ZM6.88486 15.9375H12.7499C14.6849 15.9375 15.9374 14.685 15.9374 12.75V9C15.9374 7.245 14.9099 6.03748 13.2449 5.84248C13.0649 5.81248 12.9074 5.8125 12.7499 5.8125H5.24986C5.06986 5.8125 4.89736 5.82749 4.72486 5.84999C3.07486 6.05999 2.06236 7.26 2.06236 9V11.115C2.57236 10.8375 3.15736 10.6875 3.74986 10.6875C5.71486 10.6875 7.31236 12.285 7.31236 14.25C7.31236 14.8425 7.16236 15.4275 6.88486 15.9375Z" fill="#06D9C8"/>
<path d="M16.5 12.9375H14.25C13.11 12.9375 12.1875 12.015 12.1875 10.875C12.1875 9.735 13.11 8.8125 14.25 8.8125H16.5C16.8075 8.8125 17.0625 9.0675 17.0625 9.375C17.0625 9.6825 16.8075 9.9375 16.5 9.9375H14.25C13.7325 9.9375 13.3125 10.3575 13.3125 10.875C13.3125 11.3925 13.7325 11.8125 14.25 11.8125H16.5C16.8075 11.8125 17.0625 12.0675 17.0625 12.375C17.0625 12.6825 16.8075 12.9375 16.5 12.9375Z" fill="#06D9C8"/>
</g>
<defs>
<clipPath id="clip0_147_1103">
<rect width="18" height="18" fill="white"/>
</clipPath>
</defs>
</svg>
